<svg width="21" height="17" viewBox="0 0 21 17" fill="#fff" xmlns="http://www.w3.org/2000/svg">
<path d="M5.25006 14.8333H15.7501V6.63081L10.5001 2.08581L5.25006 6.63081V14.8333ZM16.6251 16.5H4.37506C4.143 16.5 3.92044 16.4122 3.75634 16.2559C3.59225 16.0996 3.50006 15.8877 3.50006 15.6666V8.16664H0.875061L9.91119 0.343307C10.0723 0.203706 10.2823 0.126343 10.5001 0.126343C10.7179 0.126343 10.9278 0.203706 11.0889 0.343307L20.1251 8.16664H17.5001V15.6666C17.5001 15.8877 17.4079 16.0996 17.2438 16.2559C17.0797 16.4122 16.8571 16.5 16.6251 16.5ZM6.56256 9.83331H8.31256C8.31256 10.3858 8.54303 10.9157 8.95327 11.3064C9.3635 11.6971 9.9199 11.9166 10.5001 11.9166C11.0802 11.9166 11.6366 11.6971 12.0469 11.3064C12.4571 10.9157 12.6876 10.3858 12.6876 9.83331H14.4376C14.4376 10.8279 14.0227 11.7817 13.2843 12.485C12.5459 13.1882 11.5444 13.5833 10.5001 13.5833C9.45577 13.5833 8.45425 13.1882 7.71583 12.485C6.9774 11.7817 6.56256 10.8279 6.56256 9.83331Z" fill="#fff"/>
</svg>
